<?xml version="1.0" encoding="UTF-8" standalone="no"?>
<!-- Created with Inkscape (http://www.inkscape.org/) -->

<svg
   width="122.698mm"
   height="16.481001mm"
   viewBox="0 0 122.698 16.481001"
   version="1.1"
   id="svg1"
   xml:space="preserve"
   xmlns="http://www.w3.org/2000/svg"
   xmlns:svg="http://www.w3.org/2000/svg"><defs
     id="defs1" /><g
     id="layer1-5"
     transform="translate(2.4010892e-5)"><g
       id="g2"
       transform="translate(-16.989989,-43.098668)"><text
         xml:space="preserve"
         style="font-style:italic;font-variant:normal;font-weight:normal;font-stretch:normal;font-size:17.6389px;font-family:'Bauhaus 93';-inkscape-font-specification:'Bauhaus 93 Italic';text-align:start;writing-mode:lr-tb;direction:ltr;text-anchor:start;fill:#000000;stroke-width:0.275358"
         x="28.603161"
         y="60.92091"
         id="text1"
         transform="scale(0.97743379,1.0230872)"><tspan
           id="tspan1"
           style="font-style:normal;font-variant:normal;font-weight:normal;font-stretch:normal;font-size:17.6389px;font-family:'Bauhaus 93';-inkscape-font-specification:'Bauhaus 93, ';stroke-width:0.275358"
           x="28.603161"
           y="60.92091" /></text><g
         id="text1-8"
         style="font-size:17.6389px;font-family:'Bauhaus 93';-inkscape-font-specification:'Bauhaus 93, ';stroke-width:0.370429"
         transform="scale(0.98530215,1.0149171)"
         aria-label="FILIP SJÖLANDER"><g
           id="path4"
           style="opacity:1"><path
             style="font-size:medium;baseline-shift:baseline;display:inline;overflow:visible;vector-effect:none;fill:#ffffff;enable-background:accumulate;stop-color:#000000;stop-opacity:1"
             d="m 22.090902,52.009756 v 3.152264 h -1.16272 v 3.066137 h -3.496774 v -7.294995 q 0,-2.058445 1.266073,-3.402034 1.274686,-1.352201 3.203941,-1.352201 2.127348,0 3.557064,1.834515 l -2.868044,2.092897 q -0.241157,-0.671794 -0.852662,-0.671794 -0.809598,0 -0.809598,1.119657 v 1.455554 z m 7.570603,-5.537995 V 58.228157 H 26.164731 V 46.471761 Z m 2.110122,0 h 3.496774 v 6.984936 q 0,0.81821 0.258383,1.093818 0.266995,0.266995 1.042142,0.266995 h 0.180868 v 3.410647 h -0.930177 q -1.912029,0 -2.980009,-1.111044 -1.067981,-1.119657 -1.067981,-3.100588 z m 9.654887,0 V 58.228157 H 37.92974 V 46.471761 Z m 6.175338,7.691181 v -3.083363 q 1.059367,0 1.059367,-0.809598 0,-0.740696 -0.809598,-0.740696 -0.818211,0 -0.818211,1.016304 v 7.682568 h -3.496774 v -7.320833 q 0,-1.136882 0.223931,-1.860353 0.232545,-0.732083 0.78376,-1.360813 0.620118,-0.697633 1.550294,-1.102432 0.930177,-0.404799 1.920642,-0.404799 1.791451,0 3.005848,1.205785 1.22301,1.205784 1.22301,2.988622 0,1.731162 -1.093819,2.807755 -0.999078,0.990465 -3.01446,0.990465 z"
             id="path16" /><path
             style="font-size:medium;baseline-shift:baseline;display:inline;overflow:visible;vector-effect:none;fill-opacity:0;enable-background:accumulate;stop-color:#000000;stop-opacity:1"
             d="m 21.902344,45.994141 c -1.329442,0 -2.458061,0.474751 -3.339844,1.410156 -0.876425,0.930085 -1.316406,2.119027 -1.316406,3.529297 v 7.480468 h 3.867187 v -3.066406 h 1.16211 v -3.523437 h -1.16211 v -1.269532 c 0,-0.350898 0.06739,-0.593322 0.167969,-0.732421 0.100579,-0.1391 0.229857,-0.203125 0.457031,-0.203125 0.339845,0 0.533783,0.14782 0.677735,0.548828 l 0.08398,0.234375 3.222656,-2.351563 -0.117187,-0.15039 c -0.980524,-1.258142 -2.231653,-1.90625 -3.703125,-1.90625 z m 26.113281,0 c -0.685542,0 -1.351967,0.140457 -1.994141,0.419921 -0.642005,0.279392 -1.18309,0.662275 -1.615234,1.148438 v 0.002 h -0.002 c -0.382457,0.43624 -0.657131,0.912064 -0.820313,1.425781 v 0.002 c -0.15739,0.508493 -0.232422,1.145934 -0.232422,1.916016 v 7.505859 h 3.867188 v -7.86914 c 0,-0.313916 0.06552,-0.522129 0.164062,-0.644531 0.09855,-0.122403 0.234356,-0.185547 0.46875,-0.185547 0.241625,0 0.392861,0.05478 0.482422,0.136718 0.08956,0.08194 0.142579,0.204811 0.142578,0.417969 0,0.229474 -0.06413,0.362177 -0.193359,0.460938 -0.129229,0.09876 -0.352109,0.164062 -0.681641,0.164062 h -0.185546 v 3.451172 l 0.71875,0.01172 h 0.002 c 1.37318,0 2.432311,-0.341553 3.142578,-1.044922 0.764585,-0.752544 1.150391,-1.746336 1.15039,-2.939453 10e-7,-1.229932 -0.430842,-2.283562 -1.277343,-3.119141 -0.841912,-0.835941 -1.900864,-1.259765 -3.136719,-1.259765 z m -22.035156,0.292968 v 12.126953 h 3.867187 V 46.287109 Z m 5.605468,0 v 7.728516 c 10e-7,1.353906 0.3695,2.442602 1.119141,3.228516 v 0.002 h 0.002 c 0.750256,0.780508 1.802721,1.167969 3.113281,1.167968 h 1.115235 v -3.78125 h -0.367188 c -0.493483,0 -0.790579,-0.09887 -0.90625,-0.21289 -0.109197,-0.118162 -0.208984,-0.438944 -0.208984,-0.962891 v -7.169922 z m 6.158204,0 v 12.126953 h 3.867187 V 46.287109 Z m -15.841797,0.07617 c 1.298996,0 2.362707,0.56061 3.261718,1.634766 l -2.59375,1.894531 C 22.368812,49.554897 22.123459,49.25 21.738281,49.25 c -0.312557,0 -0.588526,0.121349 -0.757812,0.355469 -0.169287,0.234119 -0.238282,0.553679 -0.238282,0.949218 v 1.640625 h 1.164063 v 2.78125 h -1.164063 v 3.066407 h -3.125 v -7.109375 c 0,-1.334324 0.403172,-2.414024 1.214844,-3.275391 0.817799,-0.86753 1.827415,-1.294922 3.070313,-1.294922 z m 26.113281,0 c 1.152746,0 2.097715,0.380572 2.875,1.152344 v 0.002 c 0.782841,0.771815 1.167969,1.709262 1.167969,2.855469 0,1.115099 -0.345222,1.992867 -1.039063,2.675781 -0.621481,0.616124 -1.568762,0.93714 -2.880859,0.9375 l -0.351563,-0.0059 v -2.763672 c 0.276564,-0.02361 0.544465,-0.05718 0.722657,-0.19336 0.223893,-0.171105 0.335937,-0.443647 0.335937,-0.753906 0,-0.280639 -0.08141,-0.526447 -0.261719,-0.691406 -0.180304,-0.164959 -0.434314,-0.234375 -0.732422,-0.234375 -0.311079,0 -0.58362,0.107853 -0.757812,0.324219 -0.174192,0.216365 -0.246094,0.513333 -0.246094,0.876953 v 7.498047 h -3.125 v -7.134766 c 0,-0.744966 0.07395,-1.348724 0.214844,-1.804687 v -0.002 c 0.146939,-0.461796 0.393996,-0.891357 0.746094,-1.292968 0.394679,-0.444015 0.886146,-0.794347 1.484375,-1.054688 0.598062,-0.260268 1.212578,-0.390625 1.847656,-0.390625 z M 26.349609,46.65625 h 3.126953 v 11.386719 h -3.126953 z m 5.607422,0 h 3.126953 v 6.800781 c 0,0.56497 0.07379,0.970247 0.308594,1.220703 l 0.002,0.002 0.002,0.002 c 0.240517,0.240516 0.63285,0.317797 1.167969,0.318359 v 3.042969 h -0.744141 c -1.238811,0 -2.173938,-0.353804 -2.847656,-1.054688 -0.673576,-0.706869 -1.015625,-1.686049 -1.015625,-2.972656 z m 6.158203,0 h 3.126953 v 11.386719 h -3.126953 z"
             id="path17" /></g><g
           id="path5"
           style="opacity:1"><path
             style="font-size:medium;baseline-shift:baseline;display:inline;overflow:visible;vector-effect:none;fill-opacity:0;enable-background:accumulate;stop-color:#000000;stop-opacity:1"
             d="m 63.621556,46.420084 v 3.350358 q -0.37896,-0.129191 -0.585666,-0.129191 -0.396186,0 -0.680407,0.292833 -0.284221,0.292833 -0.284221,0.706245 0,0.353123 0.310059,0.895726 l 0.266995,0.465088 q 0.723471,1.25746 0.723471,2.428794 0,1.713936 -1.22301,2.902495 -1.214397,1.188558 -2.971397,1.188558 -0.844049,0 -1.670872,-0.387573 v -3.402034 q 0.499539,0.318671 0.887113,0.318671 0.456475,0 0.757921,-0.258382 0.310059,-0.266995 0.310059,-0.663181 0,-0.258383 -0.490927,-1.12827 -0.783759,-1.378039 -0.783759,-2.756078 0,-1.66226 1.179946,-2.859431 1.188558,-1.205785 2.833593,-1.205785 0.72347,0 1.421102,0.241157 z m 5.133196,0.05168 v 7.923725 q 0,1.791451 -1.016304,2.962784 -1.016304,1.16272 -2.575211,1.16272 -0.456475,0 -1.06798,-0.198093 v -3.384808 q 0.258382,0.111965 0.473701,0.111965 0.68902,0 0.68902,-1.111044 v -7.467249 z m 7.579217,-0.292834 q 2.497696,0 4.280534,1.81729 1.791451,1.817289 1.791451,4.349436 0,2.57521 -1.800064,4.375274 -1.800063,1.800063 -4.375274,1.800063 -2.557985,0 -4.366661,-1.808676 -1.808677,-1.808676 -1.808677,-4.366661 0,-2.583824 1.817289,-4.375275 1.825902,-1.791451 4.461402,-1.791451 z m -0.103353,3.462324 q -1.076593,0 -1.834515,0.792372 -0.757921,0.792373 -0.757921,1.91203 0,1.119656 0.757921,1.912029 0.766535,0.792372 1.834515,0.792372 1.085206,0 1.834515,-0.783759 0.757921,-0.792373 0.757921,-1.920642 0,-1.12827 -0.757921,-1.91203 -0.749309,-0.792372 -1.834515,-0.792372 z m -2.023995,-6.993549 q 0.637343,0 1.085206,0.456476 0.456475,0.447862 0.456475,1.085205 0,0.645956 -0.456475,1.102432 -0.447863,0.447863 -1.085206,0.447863 -0.645956,0 -1.102431,-0.447863 -0.447863,-0.456476 -0.447863,-1.102432 0,-0.637343 0.447863,-1.085205 0.456475,-0.456476 1.102431,-0.456476 z m 4.04799,0 q 0.637343,0 1.085206,0.456476 0.456475,0.447862 0.456475,1.085205 0,0.645956 -0.456475,1.102432 -0.447863,0.447863 -1.085206,0.447863 -0.645956,0 -1.102431,-0.447863 -0.447863,-0.456476 -0.447863,-1.102432 0,-0.637343 0.447863,-1.085205 0.456475,-0.456476 1.102431,-0.456476 z m 5.555222,3.824059 h 3.496775 V 53.4567 q 0,0.81821 0.258382,1.093818 0.266995,0.266995 1.042142,0.266995 H 88.788 v 3.410647 h -0.930177 q -1.912029,0 -2.980009,-1.111044 -1.067981,-1.119657 -1.067981,-3.100588 z m 10.42142,5.856666 v 3.100588 h -1.007691 v 2.799142 h -3.496775 v -7.475862 q 0,-2.170412 1.179946,-3.367583 1.188559,-1.205785 3.333132,-1.205785 2.067059,0 3.057525,1.093819 0.990465,1.085206 0.990465,3.35897 v 7.596441 h -3.496774 v -7.3639 q 0,-0.689019 -0.163642,-0.956014 -0.163642,-0.266995 -0.585667,-0.266995 -0.81821,0 -0.81821,1.223009 v 1.464167 z m 5.934177,5.89973 v -7.630892 q 0,-2.006769 1.19717,-3.212553 1.20579,-1.205785 3.20394,-1.205785 1.98955,0 3.0403,1.171334 1.05937,1.171333 1.05937,3.367583 v 7.510313 h -3.49677 v -7.510313 q 0,-1.076593 -0.76654,-1.076593 -0.74069,0 -0.74069,1.076593 v 7.510313 z m 14.1249,-8.3802 v 8.3802 h -3.49677 V 46.471761 h 4.55614 q 2.99724,0 4.69395,1.360813 2.01538,1.627809 2.01538,4.418338 0,2.669951 -1.72255,4.358049 -1.72255,1.688098 -4.43556,1.688098 -0.31867,0 -1.04215,-0.03445 v -3.453711 h 0.55983 q 3.05753,0 3.05753,-2.557985 0,-2.402955 -3.00585,-2.402955 z m 15.68381,1.197171 v 2.618274 h -2.28237 q -0.46509,0 -0.66318,0.137804 -0.18948,0.137804 -0.18948,0.465089 0,0.370348 0.19809,0.490926 0.19809,0.111966 0.8096,0.111966 h 2.35128 v 3.35897 h -2.74747 q -1.93787,0 -2.96278,-0.921564 -1.02492,-0.930176 -1.02492,-2.678563 v -4.607818 q 0,-1.688098 0.96463,-2.618275 0.97324,-0.930176 2.73024,-0.930176 h 3.0403 v 3.376196 h -2.23071 q -0.90433,0 -0.90433,0.585666 0,0.34451 0.21532,0.482314 0.21531,0.129191 0.76653,0.129191 z m 5.72748,-1.41249 v 8.595519 h -3.49678 V 46.471761 h 4.48724 q 2.04984,0 3.17811,1.016304 1.25746,1.136882 1.25746,2.885269 0,1.782838 -1.55891,3.005848 l 2.01538,4.848975 h -3.66903 l -1.69671,-3.789608 v -3.023073 h 0.27561 q 1.10243,0 1.10243,-0.947402 0,-0.835436 -1.27468,-0.835436 z"
             id="path18" /><path
             style="font-size:medium;baseline-shift:baseline;display:inline;overflow:visible;vector-effect:none;fill:#ffffff;enable-background:accumulate;stop-color:#000000;stop-opacity:1"
             d="m 74.207031,42.462891 c -0.474265,0 -0.89917,0.17456 -1.234375,0.509765 -0.329638,0.329637 -0.501953,0.748518 -0.501953,1.216797 0,0.473443 0.172791,0.896929 0.501953,1.232422 l 0.002,0.002 c 0.335492,0.329163 0.75898,0.501953 1.232422,0.501953 0.468279,0 0.885206,-0.174268 1.214844,-0.503906 0.335205,-0.335206 0.511719,-0.758156 0.511719,-1.232422 0,-0.468204 -0.175365,-0.885801 -0.509766,-1.214844 -0.329335,-0.335668 -0.747683,-0.511718 -1.216797,-0.511718 z m 4.046875,0 c -0.474265,0 -0.897217,0.17456 -1.232422,0.509765 -0.329638,0.329637 -0.501953,0.748518 -0.501953,1.216797 0,0.473443 0.170838,0.896929 0.5,1.232422 h 0.002 l 0.002,0.002 c 0.335493,0.329163 0.757027,0.501953 1.230469,0.501953 0.468279,0 0.887159,-0.174268 1.216797,-0.503906 0.335205,-0.335206 0.511719,-0.758156 0.511719,-1.232422 0,-0.469113 -0.178004,-0.887462 -0.513672,-1.216797 C 79.140006,42.639189 78.721567,42.462938 78.254,42.462938 Z m -4.046875,0.36914 c 0.380678,0 0.68531,0.129378 0.953125,0.402344 l 0.002,0.002 c 0.272966,0.267815 0.400391,0.572448 0.400391,0.953125 0,0.387009 -0.128915,0.697274 -0.402344,0.970703 -0.267513,0.267513 -0.571613,0.394531 -0.953125,0.394531 -0.386892,0 -0.698037,-0.125921 -0.970703,-0.392578 l -0.002,-0.002 c -0.266656,-0.272667 -0.392578,-0.583811 -0.392578,-0.970703 0,-0.381512 0.125065,-0.687566 0.392578,-0.955078 0.273428,-0.273429 0.585647,-0.402344 0.972656,-0.402344 z m 4.046875,0 c 0.380678,0 0.68531,0.129378 0.953125,0.402344 h 0.002 l 0.002,0.002 c 0.272966,0.267815 0.400391,0.572448 0.400391,0.953125 0,0.387009 -0.128915,0.697274 -0.402344,0.970703 -0.267512,0.267513 -0.573566,0.394531 -0.955078,0.394531 -0.386223,0 -0.696422,-0.126867 -0.96875,-0.392578 -0.267988,-0.273142 -0.396484,-0.584824 -0.396484,-0.972656 0,-0.381512 0.127018,-0.687566 0.394531,-0.955078 0.273428,-0.273429 0.583694,-0.402344 0.970703,-0.402344 z m -16.052734,3.16211 c -1.141943,0 -2.144435,0.425484 -2.966797,1.259765 -0.816715,0.828637 -1.232422,1.838237 -1.232422,2.990235 0,0.953806 0.272971,1.905901 0.808594,2.847656 h -0.002 c 0.161713,0.286544 0.283634,0.52066 0.361328,0.699219 0.07769,0.178559 0.107422,0.310414 0.107422,0.33789 0,0.215807 -0.07371,0.373046 -0.246094,0.521485 -0.16589,0.142191 -0.367348,0.214843 -0.636719,0.214843 -0.20762,0 -0.474346,-0.0883 -0.789062,-0.289062 l -0.283203,-0.183594 v 3.859375 l 0.105468,0.04883 c 0.573147,0.268662 1.158952,0.40625 1.75,0.40625 1.212512,0 2.258309,-0.419372 3.09961,-1.242187 0.847249,-0.823384 1.279297,-1.848478 1.279297,-3.035157 0,-0.819021 -0.253336,-1.66163 -0.748047,-2.521484 l -0.267578,-0.464844 h 0.002 c -0.198119,-0.346708 -0.28711,-0.621528 -0.28711,-0.802734 0,-0.233163 0.07328,-0.414161 0.232422,-0.578125 0.159525,-0.164359 0.328384,-0.236328 0.546875,-0.236328 0.09922,0 0.284439,0.03633 0.527344,0.11914 l 0.244141,0.08398 v -3.740235 l -0.125,-0.04492 c -0.483773,-0.167231 -0.977576,-0.25 -1.480469,-0.25 z m 14.132812,0 c -1.798965,0 -3.34273,0.61825 -4.591797,1.84375 -1.243229,1.225553 -1.873046,2.74184 -1.873046,4.507812 0,1.748977 0.626626,3.261392 1.863281,4.498047 1.236655,1.236655 2.74907,1.863281 4.498047,1.863281 1.759962,0 3.27459,-0.624199 4.505859,-1.855469 1.23127,-1.231269 1.855469,-2.745897 1.855469,-4.505859 0,-1.73121 -0.622006,-3.236596 -1.845703,-4.478516 -1.218839,-1.242392 -2.702059,-1.873046 -4.41211,-1.873046 z m 17.90625,0 c -1.464427,0 -2.633374,0.416246 -3.464843,1.259765 -0.825912,0.837968 -1.234375,2.017542 -1.234375,3.498047 v 7.662109 h 3.867187 v -2.800781 h 1.007813 v -3.470703 h -1.007813 v -1.277344 c 0,-0.387017 0.06919,-0.658048 0.173828,-0.814453 0.104637,-0.156404 0.232389,-0.224609 0.458985,-0.224609 0.242291,0 0.355709,0.06217 0.427734,0.179687 0.072,0.117475 0.136719,0.414692 0.136719,0.859375 v 7.548828 h 3.867187 v -7.783203 c 0,-1.542736 -0.335332,-2.711377 -1.039062,-3.482422 -0.703367,-0.775923 -1.783375,-1.154296 -3.19336,-1.154296 z m 10.326176,0 c -1.36936,0 -2.49396,0.419737 -3.33399,1.259765 h -0.002 c -0.83431,0.840313 -1.250001,1.969073 -1.250001,3.34375 v 7.816406 h 3.867191 V 50.71875 c 0,-0.337627 0.0616,-0.571195 0.15234,-0.703125 0.0908,-0.13193 0.20032,-0.189453 0.40234,-0.189453 0.21216,0 0.32991,0.0595 0.42383,0.191406 0.0939,0.131908 0.15821,0.364287 0.15821,0.701172 v 7.695312 h 3.86718 V 50.71875 c 0,-1.493946 -0.36254,-2.668587 -1.10742,-3.492188 -0.7393,-0.824142 -1.81502,-1.232421 -3.17773,-1.232421 z m -39.494144,0.292968 v 7.652344 c 0,0.351204 -0.05884,0.596201 -0.144532,0.734375 -0.08569,0.138174 -0.179478,0.191406 -0.359375,0.191406 -0.111442,0 -0.245358,-0.03048 -0.40039,-0.09766 L 63.910156,54.65625 v 3.800781 L 64.039062,58.5 c 0.420524,0.136226 0.793892,0.207031 1.125,0.207031 1.08532,0 2.004474,-0.416085 2.712891,-1.226562 h 0.002 C 68.58712,56.664277 68.9395,55.623856 68.9395,54.394531 v -8.107422 z m 18.552734,0 v 7.728516 c 0,1.353906 0.3695,2.442602 1.119141,3.228516 v 0.002 c 0.750255,0.780508 1.80272,1.167968 3.113281,1.167968 h 1.115234 v -3.78125 h -0.365234 c -0.493487,0 -0.792535,-0.09887 -0.908203,-0.21289 -0.109196,-0.118163 -0.207032,-0.438946 -0.207032,-0.962891 v -7.169922 z m 26.98242,0 v 12.126953 h 3.86719 v -8.380859 h 0.99609 c 0.97728,0 1.68474,0.197659 2.13868,0.560547 0.45393,0.362888 0.68164,0.893879 0.68164,1.65625 0,0.815764 -0.23429,1.390006 -0.69727,1.777344 -0.46298,0.387337 -1.18243,0.595703 -2.17578,0.595703 h -0.74414 v 3.816406 l 0.17578,0.0078 c 0.48361,0.02303 0.83166,0.03516 1.05078,0.03516 1.84709,0 3.38332,-0.580813 4.56641,-1.740235 1.18323,-1.159564 1.77734,-2.672389 1.77734,-4.492187 0,-1.904941 -0.70015,-3.442834 -2.08398,-4.560547 v -0.002 c -1.17267,-0.940512 -2.78436,-1.400391 -4.81055,-1.400391 z m 16.55078,0 c -1.20402,0 -2.1703,0.321887 -2.85937,0.980469 v 0.002 c -0.68339,0.658979 -1.02149,1.589323 -1.02149,2.75 v 4.609375 c 0,1.201783 0.3599,2.155525 1.08594,2.814453 0.72643,0.653182 1.76662,0.970704 3.08789,0.970703 h 2.93164 v -3.730468 h -2.53515 c -0.39531,0 -0.65491,-0.05341 -0.7168,-0.08789 -0.0591,-0.03727 -0.10742,-0.118831 -0.10742,-0.330078 0,-0.181444 0.044,-0.261591 0.11328,-0.3125 0.0768,-0.05287 0.26391,-0.105469 0.55469,-0.105469 h 2.46875 v -2.988281 h -2.11524 c -0.34985,0 -0.58035,-0.04977 -0.66601,-0.09961 -4.4e-4,-2.79e-4 4.3e-4,-0.0017 0,-0.002 -0.0837,-0.05409 -0.13086,-0.134117 -0.13086,-0.324218 0,-0.147557 0.0391,-0.216217 0.14258,-0.283203 0.10343,-0.06699 0.29472,-0.117188 0.57617,-0.117188 h 2.41601 V 46.28711 Z m 4.86133,0 v 12.126953 h 3.86719 v -8.595703 h 0.43555 c 0.40466,0 0.68841,0.06953 0.85351,0.177735 0.1651,0.108207 0.23633,0.241276 0.23633,0.472656 0,0.27988 -0.0754,0.452193 -0.21289,0.570312 -0.13745,0.11812 -0.36413,0.191407 -0.70508,0.191407 h -0.46094 v 3.248047 l 1.76172,3.935546 h 4.06641 l -2.07813,-5.003906 c 0.98963,-0.82551 1.5293,-1.845051 1.5293,-3.037109 0,-1.209994 -0.44502,-2.231887 -1.31836,-3.021485 v -0.002 c -0.79362,-0.714867 -1.90556,-1.0625 -3.30273,-1.0625 z m -69.818358,0.07617 c 0.419269,0 0.827991,0.08378 1.234375,0.210938 v 2.96875 c -0.138584,-0.03578 -0.291101,-0.08789 -0.400391,-0.08789 -0.309756,0 -0.593063,0.123524 -0.8125,0.349609 -0.219819,0.226481 -0.335937,0.517885 -0.335937,0.835938 0,0.289624 0.118691,0.611519 0.333984,0.988281 l 0.267578,0.464844 c 0.469917,0.816759 0.699219,1.593181 0.699219,2.335937 0,1.09857 -0.384538,2.00817 -1.167969,2.769532 -0.777687,0.76114 -1.712227,1.136718 -2.841797,1.136718 -0.498885,0 -0.992227,-0.129682 -1.486328,-0.345703 v -3.003906 c 0.240216,0.116892 0.483111,0.248047 0.703125,0.248047 0.339263,0 0.640916,-0.100417 0.876953,-0.302734 0.241032,-0.207555 0.375,-0.490294 0.375,-0.802735 0,-0.144779 -0.05272,-0.288797 -0.138672,-0.486328 -0.08595,-0.197531 -0.209428,-0.439042 -0.375,-0.732422 l -0.002,-0.002 C 58.621423,52.012525 58.373,51.127672 58.373,50.244093 c 0,-1.064349 0.368453,-1.960925 1.125,-2.728516 0.762382,-0.773432 1.651688,-1.152344 2.703125,-1.152344 z m 14.132812,0 c 1.620211,0 2.99016,0.581058 4.148438,1.761719 v 0.002 c 1.164108,1.180898 1.738281,2.574331 1.738281,4.21875 0,1.673652 -0.577278,3.075325 -1.746094,4.244141 -1.168814,1.168814 -2.570488,1.746093 -4.24414,1.746093 -1.66167,0 -3.061415,-0.578992 -4.236328,-1.753906 -1.174914,-1.174913 -1.753907,-2.574658 -1.753907,-4.236328 0,-1.678548 0.582715,-3.079376 1.761719,-4.242187 1.185469,-1.163102 2.616997,-1.740235 4.332031,-1.740235 z m 17.90625,0 c 1.34537,0 2.302641,0.35151 2.919922,1.033203 v 0.002 c 0.61689,0.675898 0.94336,1.743473 0.94336,3.232422 v 7.41211 h -3.126954 v -7.177735 c 10e-7,-0.474008 -0.04522,-0.816169 -0.191406,-1.054687 -0.146164,-0.238479 -0.423732,-0.355469 -0.74414,-0.355469 -0.318878,0 -0.599479,0.137407 -0.767579,0.388672 -0.168099,0.251265 -0.234375,0.593163 -0.234375,1.021484 v 1.648438 h 1.007813 v 2.730469 h -1.007813 v 2.798828 h -3.126953 v -7.291016 c 0,-1.413377 0.379604,-2.478068 1.126953,-3.236328 0.753277,-0.764194 1.806169,-1.152344 3.201172,-1.152344 z m 10.326176,0 c 1.29001,0 2.24064,0.373692 2.90234,1.111328 0.66762,0.738178 1.01172,1.809754 1.01172,3.244141 v 7.324219 h -3.125 V 50.71875 c 0,-0.380843 -0.065,-0.689059 -0.22656,-0.916016 -0.1616,-0.226956 -0.4277,-0.347656 -0.72657,-0.347656 -0.29176,0 -0.5509,0.122675 -0.70703,0.349609 -0.15613,0.226935 -0.21875,0.533961 -0.21875,0.914063 v 7.324219 h -3.125 v -7.445313 c 0,-1.301015 0.38066,-2.314632 1.14258,-3.082031 0.76769,-0.767685 1.77742,-1.152344 3.07227,-1.152344 z M 65.443359,46.65625 h 3.126953 v 7.738281 c 0,1.159276 -0.325751,2.096212 -0.972656,2.841797 -0.646456,0.738964 -1.440934,1.099609 -2.433594,1.099609 -0.242199,0 -0.550817,-0.06914 -0.882812,-0.166015 v -3.001953 c 0.09592,0.02369 0.194911,0.06641 0.287109,0.06641 0.27945,0 0.529844,-0.13306 0.673828,-0.365234 0.143985,-0.232175 0.201172,-0.540196 0.201172,-0.929688 z m 18.550782,0 h 3.126953 v 6.800781 c 0,0.56497 0.07379,0.970247 0.308593,1.220703 l 0.002,0.002 0.002,0.002 C 87.674112,54.922159 88.068392,54.999439 88.603516,55 v 3.042969 h -0.746094 c -1.238811,0 -2.171986,-0.353804 -2.845703,-1.054688 -0.673577,-0.706869 -1.017578,-1.686048 -1.017578,-2.972656 z m 26.984379,0 h 4.37109 c 1.97013,0 3.48851,0.446408 4.57812,1.320312 1.30335,1.0527 1.94532,2.457674 1.94532,4.273438 0,1.740136 -0.55252,3.13533 -1.66602,4.226562 -1.11365,1.091377 -2.53638,1.634766 -4.30664,1.634766 -0.17037,0 -0.49565,-0.01167 -0.85547,-0.02734 v -3.089843 h 0.37305 c 1.045,0 1.85591,-0.21827 2.41211,-0.683594 0.55619,-0.465324 0.83203,-1.170988 0.83203,-2.060547 0,-0.839599 -0.27425,-1.507216 -0.82227,-1.945313 -0.54801,-0.438096 -1.34251,-0.642578 -2.36914,-0.642578 h -1.36523 v 8.38086 h -3.12695 z m 16.17968,0 h 2.85547 v 3.005859 h -2.04687 c -0.32144,0 -0.58129,0.0495 -0.7793,0.177735 -0.19801,0.128235 -0.31055,0.350863 -0.31055,0.59375 0,0.26826 0.0982,0.509027 0.30078,0.638672 l 0.004,0.002 h 0.002 c 0.20334,0.122005 0.47938,0.15625 0.86133,0.15625 h 1.74414 v 2.248047 h -2.09765 c -0.32836,0 -0.58169,0.03925 -0.76953,0.169921 v 0.002 l -0.002,0.002 c -0.18273,0.132893 -0.26562,0.359348 -0.26562,0.613281 0,0.279921 0.0831,0.526215 0.28711,0.650391 h 0.002 l 0.002,0.002 c 0.20314,0.114817 0.48337,0.136719 0.90235,0.136718 h 2.16601 v 2.988282 h -2.5625 c -1.26255,0 -2.19973,-0.29943 -2.83984,-0.875 -0.63972,-0.581254 -0.96289,-1.410373 -0.96289,-2.539063 v -4.609375 c 0,-1.090119 0.30541,-1.903118 0.9082,-2.484375 0.60851,-0.5809 1.46366,-0.878906 2.60156,-0.878906 z m 5.23242,0 h 4.30079 c 1.33595,0 2.34395,0.328545 3.05468,0.96875 0.80327,0.726245 1.19727,1.626858 1.19727,2.748047 0,1.134575 -0.4834,2.072965 -1.48828,2.861328 l -0.11133,0.08594 1.96484,4.722657 h -3.27343 L 136.4043,54.39844 v -2.796875 h 0.0898 c 0.39401,0 0.71724,-0.08552 0.94727,-0.283203 0.23003,-0.197681 0.33984,-0.497888 0.33984,-0.849609 0,-0.325578 -0.14255,-0.610979 -0.40234,-0.78125 -0.2598,-0.170271 -0.61152,-0.240234 -1.05664,-0.240234 h -0.80665 v 8.595703 h -3.125 z m -56.160151,2.798828 c -0.763168,0 -1.43319,0.289706 -1.96875,0.849609 -0.535402,0.559739 -0.808594,1.252786 -0.808594,2.041016 0,0.788229 0.273192,1.479324 0.808594,2.039063 v 0.002 h 0.002 c 0.54091,0.559142 1.209004,0.847656 1.966797,0.847656 0.768059,0 1.438347,-0.285056 1.96875,-0.839844 0.535633,-0.559981 0.808594,-1.255176 0.808593,-2.048828 10e-7,-0.792996 -0.273316,-1.484859 -0.808593,-2.039062 -0.530209,-0.560681 -1.200201,-0.851563 -1.96875,-0.851563 z m 0,0.371094 c 0.678392,0 1.230349,0.238559 1.699218,0.734375 l 0.002,0.002 c 0.474406,0.49058 0.707031,1.072496 0.707031,1.783203 0,0.710706 -0.232103,1.296452 -0.707031,1.792969 -0.468676,0.490224 -1.02229,0.726562 -1.701172,0.726562 -0.666181,0 -1.220036,-0.238974 -1.701172,-0.736328 -0.47516,-0.496758 -0.705078,-1.078558 -0.705078,-1.783203 0,-0.704646 0.229918,-1.286444 0.705078,-1.783203 0.475002,-0.496593 1.028882,-0.736328 1.701172,-0.736328 z"
             id="path19" /></g></g></g></g></svg>
